<svg width="20" height="20" viewBox="0 0 20 20" fill="none" xmlns="http://www.w3.org/2000/svg">
<path d="M0.799225 15.625C1.42351 14.6651 2.27766 13.8764 3.28412 13.3304C4.29058 12.7844 5.41748 12.4984 6.56251 12.4984C7.70754 12.4984 8.83443 12.7844 9.84089 13.3304C10.8474 13.8764 11.7015 14.6651 12.3258 15.625" stroke="#9F9F9F" stroke-width="1.5" stroke-linecap="round" stroke-linejoin="round"/>
<path d="M13.4375 12.5C14.5825 12.4993 15.7095 12.7849 16.716 13.3306C17.7225 13.8764 18.5767 14.6651 19.2008 15.625" stroke="#9F9F9F" stroke-width="1.5" stroke-linecap="round" stroke-linejoin="round"/>
<path d="M6.56251 12.5C8.80616 12.5 10.625 10.6812 10.625 8.4375C10.625 6.19384 8.80616 4.375 6.56251 4.375C4.31885 4.375 2.50001 6.19384 2.50001 8.4375C2.50001 10.6812 4.31885 12.5 6.56251 12.5Z" stroke="#9F9F9F" stroke-width="1.5" stroke-linecap="round" stroke-linejoin="round"/>
<path d="M11.9289 4.66406C12.4846 4.44242 13.0824 4.34625 13.6796 4.38244C14.2768 4.41862 14.8586 4.58626 15.3835 4.87338C15.9084 5.16051 16.3634 5.56002 16.716 6.04337C17.0686 6.52672 17.3101 7.08198 17.4232 7.66948C17.5363 8.25698 17.5182 8.86221 17.3703 9.44192C17.2224 10.0216 16.9482 10.5615 16.5675 11.023C16.1867 11.4845 15.7087 11.8562 15.1676 12.1115C14.6266 12.3668 14.0358 12.4995 13.4375 12.5" stroke="#9F9F9F" stroke-width="1.5" stroke-linecap="round" stroke-linejoin="round"/>
</svg>
