<svg width="21" height="20" viewBox="0 0 21 20" fill="none" xmlns="http://www.w3.org/2000/svg">
<path d="M7.66667 17.5H12.6667" stroke="#9F9F9F" stroke-width="1.5" stroke-linecap="round" stroke-linejoin="round"/>
<path d="M4.54167 8.125C4.54167 6.63316 5.1343 5.20242 6.18919 4.14752C7.24408 3.09263 8.67482 2.5 10.1667 2.5C11.6585 2.5 13.0892 3.09263 14.1441 4.14752C15.199 5.20242 15.7917 6.63316 15.7917 8.125C15.7917 10.9234 16.4401 13.1719 16.9557 14.0625C17.0105 14.1574 17.0394 14.2649 17.0395 14.3745C17.0396 14.484 17.0109 14.5916 16.9563 14.6865C16.9017 14.7815 16.8231 14.8604 16.7284 14.9154C16.6337 14.9705 16.5262 14.9996 16.4167 15H3.91667C3.80728 14.9993 3.69997 14.97 3.60548 14.9149C3.51099 14.8597 3.43263 14.7808 3.37822 14.6859C3.32381 14.591 3.29526 14.4835 3.29543 14.3741C3.29559 14.2647 3.32447 14.1572 3.37917 14.0625C3.89401 13.1719 4.54167 10.9227 4.54167 8.125Z" stroke="#9F9F9F" stroke-width="1.5" stroke-linecap="round" stroke-linejoin="round"/>
</svg>
