<svg width="18" height="18" viewBox="0 0 18 18" fill="none" xmlns="http://www.w3.org/2000/svg">
<path d="M16.5466 7.3125L12.787 11.0848C13.1077 11.9756 13.2406 13.4677 11.8596 15.3035C11.763 15.4326 11.6397 15.5393 11.4981 15.6164C11.3565 15.6934 11.1999 15.739 11.0391 15.75C11.0124 15.75 10.9863 15.75 10.9596 15.75C10.8118 15.75 10.6654 15.7209 10.5288 15.6643C10.3923 15.6077 10.2682 15.5248 10.1637 15.4202L6.7704 12.0234L3.77297 15.023C3.66743 15.1285 3.52427 15.1878 3.37501 15.1878C3.22574 15.1878 3.08258 15.1285 2.97704 15.023C2.87149 14.9174 2.81219 14.7743 2.81219 14.625C2.81219 14.4757 2.87149 14.3326 2.97704 14.227L5.97657 11.2296L2.58047 7.83352C2.46885 7.72175 2.38201 7.58772 2.32561 7.44017C2.26921 7.29262 2.24452 7.13484 2.25314 6.97711C2.26176 6.81938 2.30351 6.66523 2.37565 6.5247C2.4478 6.38418 2.54873 6.26042 2.67188 6.16148C4.45922 4.71938 6.16993 5.00273 6.91876 5.23758L10.6875 1.45547C10.792 1.35098 10.916 1.26809 11.0525 1.21153C11.189 1.15498 11.3353 1.12587 11.4831 1.12587C11.6309 1.12587 11.7772 1.15498 11.9137 1.21153C12.0502 1.26809 12.1742 1.35098 12.2787 1.45547L16.5459 5.72203C16.7569 5.9329 16.8754 6.21888 16.8755 6.51712C16.8757 6.81536 16.7574 7.10145 16.5466 7.3125Z" fill="white"/>
</svg>
